<?xml version="1.0" encoding="UTF-8" standalone="no" ?>
<!DOCTYPE svg PUBLIC "-//W3C//DTD SVG 1.1//EN" "http://www.w3.org/Graphics/SVG/1.1/DTD/svg11.dtd">
<svg xmlns="http://www.w3.org/2000/svg" xmlns:xlink="http://www.w3.org/1999/xlink" version="1.1" width="128" height="128" viewBox="0 0 128 128" xml:space="preserve">
<desc>Created with Fabric.js 3.6.6</desc>
<defs>
</defs>
<g transform="matrix(1.75 0 0 1.75 62.65 61.59)"  >
<path style="stroke: none; stroke-width: 1; stroke-dasharray: none; stroke-linecap: butt; stroke-dashoffset: 0; stroke-linejoin: miter; stroke-miterlimit: 4; fill: rgb(0,0,0); fill-rule: nonzero; opacity: 1;"  transform=" translate(-24.03, -23.98)" d="M 24.15 42.7 q -3.85 0 -7.3 -1.475 q -3.45 -1.475 -6 -4.025 q -2.55 -2.55 -4.05 -5.975 T 5.3 23.9 q 0 -3.9 1.5 -7.275 q 1.5 -3.375 4.05 -5.9 q 2.55 -2.525 6 -4 T 24.2 5.25 q 4 0 7.6 1.725 Q 35.4 8.7 38.15 11.7 v -5 h 3.3 v 10.95 H 30.4 V 14.3 h 4.7 q -2.15 -2.3 -4.975 -3.675 Q 27.3 9.25 24.2 9.25 q -6.2 0 -10.55 4.2 q -4.35 4.2 -4.35 10.3 q 0 6.25 4.325 10.625 T 24.2 38.75 q 6.1 0 10.325 -4.325 T 38.75 23.95 h 4 q 0 7.8 -5.4 13.275 q -5.4 5.475 -13.2 5.475 Z m 5.95 -10.4 l -7.7 -7.6 V 13.85 h 3.3 v 9.45 l 6.8 6.6 Z" stroke-linecap="round" />
</g>
</svg>