<?xml version="1.0" encoding="UTF-8" standalone="no"?>
<!-- Created with Inkscape (http://www.inkscape.org/) -->

<svg
   xmlns:dc="http://purl.org/dc/elements/1.1/"
   xmlns:cc="http://creativecommons.org/ns#"
   xmlns:rdf="http://www.w3.org/1999/02/22-rdf-syntax-ns#"
   xmlns:svg="http://www.w3.org/2000/svg"
   xmlns="http://www.w3.org/2000/svg"
   xmlns:sodipodi="http://sodipodi.sourceforge.net/DTD/sodipodi-0.dtd"
   xmlns:inkscape="http://www.inkscape.org/namespaces/inkscape"
   width="210mm"
   height="297mm"
   viewBox="0 0 744.09448819 1052.3622047"
   id="svg2"
   version="1.1"
   inkscape:version="0.91 r13725"
   sodipodi:docname="IconBase.svg">
  <title
     id="title3510">Base Icon for Application</title>
  <defs
     id="defs4" />
  <sodipodi:namedview
     id="base"
     pagecolor="#ffffff"
     bordercolor="#666666"
     borderopacity="1.0"
     inkscape:pageopacity="0"
     inkscape:pageshadow="2"
     inkscape:zoom="0.70710678"
     inkscape:cx="72.818371"
     inkscape:cy="582.53872"
     inkscape:document-units="px"
     inkscape:current-layer="layer1"
     showgrid="false"
     inkscape:window-width="1920"
     inkscape:window-height="1137"
     inkscape:window-x="1272"
     inkscape:window-y="-8"
     inkscape:window-maximized="1" />
  <metadata
     id="metadata7">
    <rdf:RDF>
      <cc:Work
         rdf:about="">
        <dc:format>image/svg+xml</dc:format>
        <dc:type
           rdf:resource="http://purl.org/dc/dcmitype/StillImage" />
        <dc:title>Base Icon for Application</dc:title>
      </cc:Work>
    </rdf:RDF>
  </metadata>
  <g
     inkscape:label="Layer 1"
     inkscape:groupmode="layer"
     id="layer1">
    <path
       style="fill:#0000ff;fill-rule:evenodd;stroke:#000000;stroke-width:1px;stroke-linecap:butt;stroke-linejoin:miter;stroke-opacity:1"
       d="m 282.99414,346.82227 c -8.58637,-0.33766 -15.43164,1.14843 -15.43164,1.14843 -33.70974,6.3632 -53.71509,36.04375 -54.28125,72.76758 0.15859,3.49126 -0.93143,6.21562 -0.27344,9.64453 l -0.5,191.44336 c -0.008,0.0536 -0.0273,0.14844 -0.0273,0.14844 0.0231,4.93549 -0.85088,6.53401 -0.63672,9.44531 l 0.66406,5.94531 0,1.20118 1.14063,0 c 5.33273,5.16019 14.95178,8.58156 25.77539,9.16797 13.15162,0.6948 28.46914,-1.13262 34.95048,-7.4002 l 0.39327,-1.94455 0,-3.82908 c 0.12088,-0.2085 0.23483,-0.41817 0.3418,-0.62891 l -0.3418,-4.44336 0,-141.44726 c 5.46078,0.40359 10.94887,0.13475 16.34765,-0.80079 l 0,152.52149 0,3.0293 0,292.08789 c -0.42206,1.20193 -0.40232,4.36487 -0.29197,5.58125 0.82435,9.02326 17.05501,17.63258 36.6427,17.44827 19.06394,-0.17938 38.29431,-6.05219 42.92194,-14.83019 l 0.49522,-4.08494 0.0349,-1.23744 0,-294.96484 14.14062,0 0,294.28906 c -0.40489,1.1429 -0.20111,2.29988 -0.0937,3.45508 0.87644,9.01482 20.56647,16.55159 42.11764,17.07908 20.84554,-0.003 35.4167,-4.81067 40.34131,-13.58104 l 0.56747,-0.24089 -0.0987,-3.0052 -3.5,-300.01563 0.46875,0 0,-148.75976 c 4.09697,0.34401 8.21568,0.30937 12.30664,-0.10352 l 0,134.07227 c -0.56893,1.45845 -0.30573,2.94949 -0.20508,4.43945 0.69598,9.04546 13.02498,16.43046 29.57813,17.31446 16.55358,0.88415 28.52528,-4.2531 32.4375,-13.05274 l 1.48046,-8.75391 c -0.55378,-0.88726 -0.23289,-3.74986 -1.03125,-4.58007 l 0,-215.25196 -0.27148,-0.5 -0.2793,-8.3457 c -10.0586,-31.07727 -30.04655,-50.48293 -63.51562,-50.60742 l -10,-0.0449 -165.19336,0.75 c -6.2291,-0.61493 -8.67744,-1.13277 -17.17383,-0.52539 z"
       id="rect3349"
       inkscape:connector-curvature="0"
       sodipodi:nodetypes="ccccccccccccccccccccccscccccccccccccccccscccccccccc" />
    <path
       style="fill:#0000ff"
       id="path3470"
       sodipodi:type="arc"
       sodipodi:cx="376.14642"
       sodipodi:cy="265.61221"
       sodipodi:rx="70.5"
       sodipodi:ry="69.75"
       sodipodi:start="0.23739619"
       sodipodi:end="0.23616329"
       d="m 444.66915,282.01551 a 70.5,69.75 0 0 1 -85.08128,51.39552 70.5,69.75 0 0 1 -51.97438,-84.16031 70.5,69.75 0 0 1 85.04924,-51.44741 70.5,69.75 0 0 1 52.02681,84.1286"
       sodipodi:open="true" />
    <path
       style="fill:#ffffff"
       id="path3472"
       sodipodi:type="arc"
       sodipodi:cx="330.48404"
       sodipodi:cy="942.14191"
       sodipodi:rx="37.034718"
       sodipodi:ry="11.932427"
       sodipodi:start="0.23739619"
       sodipodi:end="0.23616399"
       sodipodi:open="true"
       d="m 366.48007,944.94809 a 37.034718,11.932427 0 0 1 -44.69449,8.79245 37.034718,11.932427 0 0 1 -27.30293,-14.39767 37.034718,11.932427 0 0 1 44.67767,-8.80132 37.034718,11.932427 0 0 1 27.33045,14.39224" />
    <path
       style="fill:#ffffff"
       id="path3472-8"
       sodipodi:type="arc"
       sodipodi:cx="426.38538"
       sodipodi:cy="940.28583"
       sodipodi:rx="37.034718"
       sodipodi:ry="11.932427"
       sodipodi:start="0.23739619"
       sodipodi:end="0.23616399"
       sodipodi:open="true"
       d="m 462.3814,943.09201 a 37.034718,11.932427 0 0 1 -44.69449,8.79245 37.034718,11.932427 0 0 1 -27.30292,-14.39767 37.034718,11.932427 0 0 1 44.67767,-8.80132 37.034718,11.932427 0 0 1 27.33045,14.39225" />
    <path
       style="fill:#ffffff"
       id="path3472-6"
       sodipodi:type="arc"
       sodipodi:cx="508.14456"
       sodipodi:cy="630.48468"
       sodipodi:rx="28.461048"
       sodipodi:ry="15.202796"
       sodipodi:start="0.23739619"
       sodipodi:end="0.23616399"
       sodipodi:open="true"
       d="m 535.80738,634.05996 a 28.461048,15.202796 0 0 1 -34.34756,11.20223 28.461048,15.202796 0 0 1 -20.9822,-18.34369 28.461048,15.202796 0 0 1 34.33463,-11.21353 28.461048,15.202796 0 0 1 21.00336,18.33678" />
    <path
       style="fill:#ffffff"
       id="path3472-6-4"
       sodipodi:type="arc"
       sodipodi:cx="244.12862"
       sodipodi:cy="631.10339"
       sodipodi:rx="28.461048"
       sodipodi:ry="15.202796"
       sodipodi:start="0.23739619"
       sodipodi:end="0.23616399"
       sodipodi:open="true"
       d="m 271.79143,634.67868 a 28.461048,15.202796 0 0 1 -34.34755,11.20223 28.461048,15.202796 0 0 1 -20.9822,-18.34369 28.461048,15.202796 0 0 1 34.33463,-11.21354 28.461048,15.202796 0 0 1 21.00335,18.33679" />
  </g>
</svg>
